<?xml version="1.0" encoding="UTF-8" standalone="no"?>
<!DOCTYPE svg PUBLIC "-//W3C//DTD SVG 1.1//EN" "http://www.w3.org/Graphics/SVG/1.1/DTD/svg11.dtd">
<svg width="100%" height="100%" viewBox="0 0 28800 14400" version="1.1" xmlns="http://www.w3.org/2000/svg" xmlns:xlink="http://www.w3.org/1999/xlink" xml:space="preserve" xmlns:serif="http://www.serif.com/" style="fill-rule:evenodd;clip-rule:evenodd;stroke-linejoin:round;stroke-miterlimit:2;">
    <g transform="matrix(0.990753,0,0,0.985545,266.314,208.147)">
        <rect x="-268.8" y="-211.2" width="29068.8" height="14611.2" style="fill:rgb(35,80,115);"/>
    </g>
    <g transform="matrix(1,0,0,1,2219.29,1056)">
        <path d="M2349.59,11181.1L2022.05,11980.9L1849.19,11980.9L1777.71,11423.1L1563.26,11980.9L1392.75,11980.9L1298.41,11181.1L1481.81,11181.1L1532.2,11735.4L1743.14,11181.1L1909.55,11181.1L1976.93,11735.4L2186.7,11181.1L2349.59,11181.1Z" style="fill:white;fill-rule:nonzero;"/>
        <path d="M2846.69,11980.9L2674.43,11980.9L2734.78,11619.4C2738.29,11598.3 2740.05,11581.3 2740.05,11568.4C2740.05,11551.2 2734.19,11536.8 2722.47,11525.3C2710.75,11513.8 2695.52,11508 2676.77,11508C2653.72,11508 2633.51,11515.1 2616.12,11529.1C2598.74,11543.2 2586.34,11561.3 2578.92,11583.3C2571.49,11605.4 2563.29,11643 2554.31,11696.1L2506.85,11980.9L2334.58,11980.9L2468.18,11181.1L2640.44,11181.1L2591.81,11472.3C2632.82,11407.1 2688.49,11374.4 2758.8,11374.4C2804.5,11374.4 2842.3,11388.3 2872.18,11416C2902.06,11443.8 2917,11480.3 2917,11525.6C2917,11549.4 2911.14,11596.5 2899.43,11666.8L2846.69,11980.9Z" style="fill:white;fill-rule:nonzero;"/>
        <path d="M3596.92,11712.5L3211.96,11712.5C3209.62,11732.1 3208.44,11746.7 3208.44,11756.5C3208.44,11795.1 3218.21,11824.1 3237.74,11843.5C3257.27,11862.8 3281.1,11872.5 3309.22,11872.5C3365.08,11872.5 3404.73,11840.8 3428.17,11777.6L3574.66,11802.2C3554.73,11859.6 3520.94,11906.2 3473.29,11941.9C3425.63,11977.7 3367.62,11995.5 3299.26,11995.5C3220.75,11995.5 3157.08,11970.2 3108.25,11919.4C3059.42,11868.7 3035.01,11802.6 3035.01,11721C3035.01,11630.4 3063.82,11549.7 3121.43,11478.6C3179.05,11407.6 3255.32,11372.1 3350.24,11372.1C3429.93,11372.1 3491.94,11397.8 3536.28,11449.3C3580.61,11500.8 3602.78,11564.7 3602.78,11641.2C3602.78,11657.9 3600.83,11681.7 3596.92,11712.5ZM3224.26,11614.1L3439.3,11614.1C3441.26,11600.9 3442.23,11589 3442.23,11578.5C3442.23,11547.4 3433.35,11523.5 3415.57,11506.8C3397.8,11490 3376.41,11481.7 3351.41,11481.7C3285.79,11481.7 3243.41,11525.8 3224.26,11614.1Z" style="fill:white;fill-rule:nonzero;"/>
        <path d="M4095.78,11549C4063.75,11549 4037.38,11553.8 4016.68,11563.4C3995.98,11573 3976.93,11590.4 3959.55,11615.5C3942.17,11640.7 3929.47,11669 3921.47,11700.2C3913.46,11731.4 3903.99,11782 3893.05,11852L3871.37,11980.9L3692.07,11980.9L3791.68,11385L3958.09,11385L3935.24,11522.1C3952.81,11481.5 3970.39,11450.5 3987.97,11429.2C4005.55,11407.9 4023.62,11393.9 4042.17,11387C4060.72,11380.2 4084.65,11376.8 4113.95,11376.8L4095.78,11549Z" style="fill:white;fill-rule:nonzero;"/>
        <path d="M4720.62,11712.5L4335.66,11712.5C4333.32,11732.1 4332.15,11746.7 4332.15,11756.5C4332.15,11795.1 4341.91,11824.1 4361.44,11843.5C4380.97,11862.8 4404.8,11872.5 4432.93,11872.5C4488.79,11872.5 4528.43,11840.8 4551.87,11777.6L4698.36,11802.2C4678.43,11859.6 4644.65,11906.2 4596.99,11941.9C4549.33,11977.7 4491.32,11995.5 4422.97,11995.5C4344.45,11995.5 4280.78,11970.2 4231.95,11919.4C4183.12,11868.7 4158.71,11802.6 4158.71,11721C4158.71,11630.4 4187.52,11549.7 4245.13,11478.6C4302.75,11407.6 4379.02,11372.1 4473.94,11372.1C4553.63,11372.1 4615.64,11397.8 4659.98,11449.3C4704.31,11500.8 4726.48,11564.7 4726.48,11641.2C4726.48,11657.9 4724.53,11681.7 4720.62,11712.5ZM4347.97,11614.1L4563.01,11614.1C4564.96,11600.9 4565.93,11589 4565.93,11578.5C4565.93,11547.4 4557.05,11523.5 4539.27,11506.8C4521.5,11490 4500.11,11481.7 4475.11,11481.7C4409.49,11481.7 4367.11,11525.8 4347.97,11614.1Z" style="fill:white;fill-rule:nonzero;"/>
        <path d="M5699.6,11770.5C5649.21,11919 5557.61,11993.2 5424.79,11993.2C5341.98,11993.2 5278.02,11967.3 5232.9,11915.6C5187.78,11863.8 5165.22,11798.1 5165.22,11718.4C5165.22,11628.9 5193.35,11549.1 5249.6,11479C5305.85,11408.9 5380.85,11373.9 5474.6,11373.9C5559.75,11373.9 5622.16,11397 5661.8,11443.3C5701.45,11489.6 5721.28,11539.1 5721.28,11591.8L5721.28,11604.7L5566.59,11614.1C5566.59,11574.6 5557.61,11546.4 5539.64,11529.4C5521.67,11512.4 5501.16,11503.9 5478.11,11503.9C5439.44,11503.9 5408.68,11526.3 5385.83,11571C5362.98,11615.7 5351.55,11674.2 5351.55,11746.5C5351.55,11819.6 5381.82,11856.1 5442.37,11856.1C5495.89,11856.1 5533.19,11821.1 5554.28,11751.2L5699.6,11770.5Z" style="fill:white;fill-rule:nonzero;"/>
        <path d="M6392.99,11385L6293.38,11980.9L6135.76,11980.9L6153.93,11873.1C6108.23,11953.9 6047.87,11994.4 5972.87,11994.4C5929.9,11994.4 5894.07,11981.5 5865.35,11955.7C5836.64,11929.9 5822.29,11892.2 5822.29,11842.6C5822.29,11822.3 5826.19,11788.9 5834.01,11742.4L5893.77,11385L6066.04,11385L6004.51,11753C5999.83,11779.5 5997.48,11796.9 5997.48,11805.1C5997.48,11839.9 6014.08,11857.3 6047.29,11857.3C6067.6,11857.3 6086.55,11850.4 6104.12,11836.7C6121.7,11823.1 6135.47,11804.8 6145.43,11782C6155.39,11759.1 6164.67,11722.3 6173.26,11671.5L6221.31,11385L6392.99,11385Z" style="fill:white;fill-rule:nonzero;"/>
        <path d="M6875.45,11549C6843.42,11549 6817.05,11553.8 6796.35,11563.4C6775.64,11573 6756.6,11590.4 6739.22,11615.5C6721.83,11640.7 6709.14,11669 6701.13,11700.2C6693.12,11731.4 6683.65,11782 6672.71,11852L6651.03,11980.9L6471.74,11980.9L6571.35,11385L6737.75,11385L6714.9,11522.1C6732.48,11481.5 6750.06,11450.5 6767.63,11429.2C6785.21,11407.9 6803.28,11393.9 6821.83,11387C6840.39,11380.2 6864.31,11376.8 6893.61,11376.8L6875.45,11549Z" style="fill:white;fill-rule:nonzero;"/>
        <path d="M7243.06,11170.5L7214.93,11339.9L7035.64,11339.9L7063.76,11170.5L7243.06,11170.5ZM7207.32,11385L7107.71,11980.9L6928.41,11980.9L7028.02,11385L7207.32,11385Z" style="fill:white;fill-rule:nonzero;"/>
        <path d="M7607.74,11370.3C7685.09,11370.3 7747.68,11396 7795.53,11447.4C7843.39,11498.8 7867.31,11566 7867.31,11649.2C7867.31,11744.2 7838.31,11825.2 7780.3,11892.4C7722.29,11959.6 7649.54,11993.2 7562.04,11993.2C7486.65,11993.2 7424.34,11967.8 7375.12,11917C7325.91,11866.2 7301.3,11802.2 7301.3,11724.8C7301.3,11622.9 7329.62,11538.3 7386.26,11471.1C7442.9,11403.9 7516.73,11370.3 7607.74,11370.3ZM7607.16,11485.8C7558.33,11485.8 7524.54,11516.2 7505.79,11577C7487.04,11637.9 7477.66,11700.5 7477.66,11764.8C7477.66,11840.1 7507.35,11877.8 7566.73,11877.8C7615.16,11877.8 7648.37,11844.7 7666.34,11778.6C7684.31,11712.5 7693.29,11652.5 7693.29,11598.7C7693.29,11523.4 7664.58,11485.8 7607.16,11485.8Z" style="fill:white;fill-rule:nonzero;"/>
        <path d="M8467.54,11542L8334.53,11567.8C8323.6,11512.3 8284.53,11484.6 8217.35,11484.6C8195.08,11484.6 8176.72,11490.4 8162.27,11502.1C8147.82,11513.8 8140.59,11527.1 8140.59,11541.9C8140.59,11558.7 8146.94,11570.8 8159.63,11578.2C8172.33,11585.6 8198.79,11592.6 8239.03,11599.3C8309.73,11610.7 8362.27,11630 8396.64,11657.2C8431.02,11684.3 8448.21,11725.8 8448.21,11781.7C8448.21,11840.6 8425.16,11890.8 8379.07,11932.3C8332.97,11973.7 8269.3,11994.4 8188.05,11994.4C8120.08,11994.4 8060.71,11979.7 8009.93,11950.4C7959.14,11921.1 7929.07,11875.8 7919.69,11814.5L8066.76,11797.5C8074.57,11853.7 8117.54,11881.9 8195.67,11881.9C8227.7,11881.9 8251.82,11875.7 8268.03,11863.5C8284.24,11851.2 8292.35,11836.7 8292.35,11819.9C8292.35,11803.2 8286.1,11790.9 8273.6,11783.1C8261.1,11775.3 8234.34,11767.9 8193.32,11760.9C8108.17,11746.2 8051.62,11723.1 8023.7,11691.4C7995.77,11659.8 7981.8,11622.1 7981.8,11578.3C7981.8,11519.4 8002.6,11470.2 8044.2,11431C8085.8,11391.7 8144.11,11372.1 8219.1,11372.1C8358.17,11372.1 8440.98,11428.7 8467.54,11542Z" style="fill:white;fill-rule:nonzero;"/>
        <path d="M8869.14,11170.5L8841.01,11339.9L8661.72,11339.9L8689.84,11170.5L8869.14,11170.5ZM8833.4,11385L8733.79,11980.9L8554.49,11980.9L8654.1,11385L8833.4,11385Z" style="fill:white;fill-rule:nonzero;"/>
        <path d="M9323.47,11521.5L9181.67,11521.5L9141.83,11760.5C9137.53,11785.2 9135.38,11802.2 9135.38,11811.6C9135.38,11843.6 9161.17,11859.6 9212.73,11859.6C9237.34,11859.6 9258.04,11858 9274.84,11854.9L9252.57,11985.6C9211.56,11992.2 9172.1,11995.5 9134.21,11995.5C9015.85,11995.5 8956.67,11947.5 8956.67,11851.4C8956.67,11824.8 8962.92,11780.1 8975.42,11717.2L9015.27,11521.5L8923.27,11521.5L8946.13,11385L9045.74,11385L9086.17,11220.9L9236.75,11216.8L9208.63,11385L9346.32,11385L9323.47,11521.5Z" style="fill:white;fill-rule:nonzero;"/>
        <path d="M9941.86,11385L9674.68,11947.4C9639.13,12022.4 9611.98,12073.5 9593.23,12100.6C9574.48,12127.8 9550.07,12149.3 9519.99,12165.1C9489.91,12181 9447.53,12188.9 9392.84,12188.9C9365.89,12188.9 9345.18,12187.9 9330.73,12186L9340.11,12052.4C9374.09,12056.7 9398.51,12058.8 9413.35,12058.8C9447.33,12058.8 9472.82,12052.5 9489.81,12039.9C9506.81,12027.3 9520.58,12005.3 9531.12,11973.9L9394.01,11385L9573.9,11385L9645.97,11746.8L9806.51,11385L9941.86,11385Z" style="fill:white;fill-rule:nonzero;"/>
        <path d="M10643.1,11980.9C10642.3,11963.3 10641.9,11951 10641.9,11944C10641.9,11936.2 10643.1,11923.5 10645.4,11905.9C10647,11895.3 10648,11886.2 10648.4,11878.3C10611.3,11956.5 10547.4,11995.5 10456.8,11995.5C10404.4,11995.5 10361.6,11980.1 10328.2,11949.3C10294.8,11918.5 10278.1,11879.9 10278.1,11833.5C10278.1,11768.7 10307.2,11716.8 10365.4,11677.6C10423.6,11638.4 10529,11615.2 10681.8,11608.2C10688.8,11589.5 10692.3,11571.7 10692.3,11554.9C10692.3,11533 10685.3,11515.7 10671.2,11503.1C10657.2,11490.4 10638.2,11484 10614.4,11484C10554.6,11484 10514.8,11514.1 10494.9,11574.2L10338.4,11556.7C10380.2,11435.2 10476.5,11374.4 10627.3,11374.4C10703.5,11374.4 10761.4,11390.3 10801,11421.9C10840.7,11453.5 10860.5,11495.1 10860.5,11546.7C10860.5,11565.5 10855,11608.4 10844.1,11675.6L10818.3,11828.5C10810.1,11877.8 10806,11915.5 10806,11941.6C10806,11954.1 10807,11967.2 10808.9,11980.9L10643.1,11980.9ZM10669.5,11692C10528.8,11697.1 10458.5,11737.6 10458.5,11813.5C10458.5,11834.2 10464.7,11851.4 10477,11865.2C10489.3,11879.1 10505.8,11886 10526.5,11886C10560.1,11886 10590,11869.8 10616.2,11837.5C10642.3,11805.2 10660.1,11756.7 10669.5,11692Z" style="fill:white;fill-rule:nonzero;"/>
        <path d="M11232.8,11385L11214,11498.1C11257.4,11415.6 11317,11374.4 11392.7,11374.4C11439.6,11374.4 11477.8,11389.6 11507.3,11419.9C11536.8,11450.1 11551.5,11488.5 11551.5,11535C11551.5,11553.8 11547,11590.7 11538.1,11645.8L11481.8,11980.9L11310.1,11980.9L11368.1,11632.8C11374,11598.1 11376.9,11576.2 11376.9,11567.2C11376.9,11525.4 11356.4,11504.5 11315.4,11504.5C11293.9,11504.5 11274.2,11511.6 11256.2,11525.9C11238.3,11540.2 11225.2,11558.5 11217,11581C11208.8,11603.5 11200.8,11638.5 11192.9,11686.2L11143.7,11980.9L10971.5,11980.9L11071.1,11385L11232.8,11385Z" style="fill:white;fill-rule:nonzero;"/>
        <path d="M12165.2,11980.9L12003.5,11980.9L12018.8,11890.5C11977,11959.4 11925,11993.8 11862.9,11993.8C11802.4,11993.8 11755.7,11971.1 11722.9,11925.8C11690,11880.5 11673.6,11820.9 11673.6,11747.1C11673.6,11656.1 11696.7,11570.8 11742.8,11491.3C11788.9,11411.8 11852.9,11372.1 11935,11372.1C12010.8,11372.1 12057.8,11408.9 12076.2,11482.4L12126.6,11181.1L12298.8,11181.1L12165.2,11980.9ZM11925,11870.7C11950,11870.7 11973.1,11859.5 11994.1,11837C12015.2,11814.6 12030.6,11773.3 12040.1,11713.1C12049.7,11653 12054.5,11614.7 12054.5,11598.3C12054.5,11566.2 12046.6,11540.7 12030.8,11521.8C12015,11502.9 11995.7,11493.4 11973.1,11493.4C11931.6,11493.4 11901.1,11523.4 11881.4,11583.3C11861.6,11643.3 11851.8,11705.1 11851.8,11768.8C11851.8,11804.3 11859.2,11830.2 11874,11846.4C11888.9,11862.6 11905.9,11870.7 11925,11870.7Z" style="fill:white;fill-rule:nonzero;"/>
        <path d="M13227.4,11770.5C13177,11919 13085.4,11993.2 12952.6,11993.2C12869.8,11993.2 12805.8,11967.3 12760.7,11915.6C12715.6,11863.8 12693,11798.1 12693,11718.4C12693,11628.9 12721.2,11549.1 12777.4,11479C12833.7,11408.9 12908.7,11373.9 13002.4,11373.9C13087.6,11373.9 13150,11397 13189.6,11443.3C13229.3,11489.6 13249.1,11539.1 13249.1,11591.8L13249.1,11604.7L13094.4,11614.1C13094.4,11574.6 13085.4,11546.4 13067.5,11529.4C13049.5,11512.4 13029,11503.9 13005.9,11503.9C12967.3,11503.9 12936.5,11526.3 12913.7,11571C12890.8,11615.7 12879.4,11674.2 12879.4,11746.5C12879.4,11819.6 12909.6,11856.1 12970.2,11856.1C13023.7,11856.1 13061,11821.1 13082.1,11751.2L13227.4,11770.5Z" style="fill:white;fill-rule:nonzero;"/>
        <path d="M13725.1,11549C13693.1,11549 13666.7,11553.8 13646,11563.4C13625.3,11573 13606.3,11590.4 13588.9,11615.5C13571.5,11640.7 13558.8,11669 13550.8,11700.2C13542.8,11731.4 13533.3,11782 13522.4,11852L13500.7,11980.9L13321.4,11980.9L13421,11385L13587.4,11385L13564.6,11522.1C13582.1,11481.5 13599.7,11450.5 13617.3,11429.2C13634.9,11407.9 13652.9,11393.9 13671.5,11387C13690.1,11380.2 13714,11376.8 13743.3,11376.8L13725.1,11549Z" style="fill:white;fill-rule:nonzero;"/>
        <path d="M14350,11712.5L13965,11712.5C13962.6,11732.1 13961.5,11746.7 13961.5,11756.5C13961.5,11795.1 13971.2,11824.1 13990.8,11843.5C14010.3,11862.8 14034.1,11872.5 14062.3,11872.5C14118.1,11872.5 14157.8,11840.8 14181.2,11777.6L14327.7,11802.2C14307.8,11859.6 14274,11906.2 14226.3,11941.9C14178.7,11977.7 14120.7,11995.5 14052.3,11995.5C13973.8,11995.5 13910.1,11970.2 13861.3,11919.4C13812.5,11868.7 13788,11802.6 13788,11721C13788,11630.4 13816.8,11549.7 13874.5,11478.6C13932.1,11407.6 14008.4,11372.1 14103.3,11372.1C14183,11372.1 14245,11397.8 14289.3,11449.3C14333.6,11500.8 14355.8,11564.7 14355.8,11641.2C14355.8,11657.9 14353.9,11681.7 14350,11712.5ZM13977.3,11614.1L14192.3,11614.1C14194.3,11600.9 14195.3,11589 14195.3,11578.5C14195.3,11547.4 14186.4,11523.5 14168.6,11506.8C14150.8,11490 14129.4,11481.7 14104.4,11481.7C14038.8,11481.7 13996.4,11525.8 13977.3,11614.1Z" style="fill:white;fill-rule:nonzero;"/>
        <path d="M14800.8,11980.9C14800,11963.3 14799.6,11951 14799.6,11944C14799.6,11936.2 14800.8,11923.5 14803.1,11905.9C14804.7,11895.3 14805.6,11886.2 14806,11878.3C14768.9,11956.5 14705.1,11995.5 14614.4,11995.5C14562.1,11995.5 14519.2,11980.1 14485.8,11949.3C14452.4,11918.5 14435.7,11879.9 14435.7,11833.5C14435.7,11768.7 14464.8,11716.8 14523,11677.6C14581.2,11638.4 14686.7,11615.2 14839.4,11608.2C14846.5,11589.5 14850,11571.7 14850,11554.9C14850,11533 14843,11515.7 14828.9,11503.1C14814.8,11490.4 14795.9,11484 14772.1,11484C14712.3,11484 14672.4,11514.1 14652.5,11574.2L14496.1,11556.7C14537.9,11435.2 14634.2,11374.4 14784.9,11374.4C14861.1,11374.4 14919,11390.3 14958.7,11421.9C14998.3,11453.5 15018.1,11495.1 15018.1,11546.7C15018.1,11565.5 15012.7,11608.4 15001.7,11675.6L14976,11828.5C14967.8,11877.8 14963.7,11915.5 14963.7,11941.6C14963.7,11954.1 14964.6,11967.2 14966.6,11980.9L14800.8,11980.9ZM14827.1,11692C14686.5,11697.1 14616.2,11737.6 14616.2,11813.5C14616.2,11834.2 14622.3,11851.4 14634.7,11865.2C14647,11879.1 14663.5,11886 14684.2,11886C14717.8,11886 14747.6,11869.8 14773.8,11837.5C14800,11805.2 14817.8,11756.7 14827.1,11692Z" style="fill:white;fill-rule:nonzero;"/>
        <path d="M15540.5,11521.5L15398.7,11521.5L15358.8,11760.5C15354.5,11785.2 15352.4,11802.2 15352.4,11811.6C15352.4,11843.6 15378.1,11859.6 15429.7,11859.6C15454.3,11859.6 15475,11858 15491.8,11854.9L15469.6,11985.6C15428.5,11992.2 15389.1,11995.5 15351.2,11995.5C15232.8,11995.5 15173.7,11947.5 15173.7,11851.4C15173.7,11824.8 15179.9,11780.1 15192.4,11717.2L15232.2,11521.5L15140.3,11521.5L15163.1,11385L15262.7,11385L15303.1,11220.9L15453.7,11216.8L15425.6,11385L15563.3,11385L15540.5,11521.5Z" style="fill:white;fill-rule:nonzero;"/>
        <path d="M15909.8,11170.5L15881.7,11339.9L15702.4,11339.9L15730.5,11170.5L15909.8,11170.5ZM15874.1,11385L15774.5,11980.9L15595.2,11980.9L15694.8,11385L15874.1,11385Z" style="fill:white;fill-rule:nonzero;"/>
        <path d="M16522.4,11385L16230,11980.9L16086.4,11980.9L15968.6,11385L16150.9,11385L16214.2,11754.7L16385.8,11385L16522.4,11385Z" style="fill:white;fill-rule:nonzero;"/>
        <path d="M16847.8,11170.5L16819.7,11339.9L16640.4,11339.9L16668.5,11170.5L16847.8,11170.5ZM16812,11385L16712.4,11980.9L16533.1,11980.9L16632.7,11385L16812,11385Z" style="fill:white;fill-rule:nonzero;"/>
        <path d="M17302.1,11521.5L17160.3,11521.5L17120.5,11760.5C17116.2,11785.2 17114,11802.2 17114,11811.6C17114,11843.6 17139.8,11859.6 17191.4,11859.6C17216,11859.6 17236.7,11858 17253.5,11854.9L17231.2,11985.6C17190.2,11992.2 17150.7,11995.5 17112.9,11995.5C16994.5,11995.5 16935.3,11947.5 16935.3,11851.4C16935.3,11824.8 16941.6,11780.1 16954.1,11717.2L16993.9,11521.5L16901.9,11521.5L16924.8,11385L17024.4,11385L17064.8,11220.9L17215.4,11216.8L17187.3,11385L17325,11385L17302.1,11521.5Z" style="fill:white;fill-rule:nonzero;"/>
        <path d="M17920.5,11385L17653.3,11947.4C17617.8,12022.4 17590.6,12073.5 17571.9,12100.6C17553.1,12127.8 17528.7,12149.3 17498.6,12165.1C17468.6,12181 17426.2,12188.9 17371.5,12188.9C17344.5,12188.9 17323.8,12187.9 17309.4,12186L17318.7,12052.4C17352.7,12056.7 17377.1,12058.8 17392,12058.8C17426,12058.8 17451.5,12052.5 17468.5,12039.9C17485.4,12027.3 17499.2,12005.3 17509.8,11973.9L17372.7,11385L17552.5,11385L17624.6,11746.8L17785.2,11385L17920.5,11385Z" style="fill:white;fill-rule:nonzero;"/>
        <path d="M18815.1,11770.5C18764.7,11919 18673.1,11993.2 18540.3,11993.2C18457.5,11993.2 18393.5,11967.3 18348.4,11915.6C18303.3,11863.8 18280.7,11798.1 18280.7,11718.4C18280.7,11628.9 18308.9,11549.1 18365.1,11479C18421.4,11408.9 18496.4,11373.9 18590.1,11373.9C18675.3,11373.9 18737.7,11397 18777.3,11443.3C18817,11489.6 18836.8,11539.1 18836.8,11591.8L18836.8,11604.7L18682.1,11614.1C18682.1,11574.6 18673.1,11546.4 18655.1,11529.4C18637.2,11512.4 18616.7,11503.9 18593.6,11503.9C18554.9,11503.9 18524.2,11526.3 18501.3,11571C18478.5,11615.7 18467.1,11674.2 18467.1,11746.5C18467.1,11819.6 18497.3,11856.1 18557.9,11856.1C18611.4,11856.1 18648.7,11821.1 18669.8,11751.2L18815.1,11770.5Z" style="fill:white;fill-rule:nonzero;"/>
        <path d="M19230.8,11370.3C19308.1,11370.3 19370.7,11396 19418.6,11447.4C19466.4,11498.8 19490.3,11566 19490.3,11649.2C19490.3,11744.2 19461.3,11825.2 19403.3,11892.4C19345.3,11959.6 19272.6,11993.2 19185.1,11993.2C19109.7,11993.2 19047.4,11967.8 18998.1,11917C18948.9,11866.2 18924.3,11802.2 18924.3,11724.8C18924.3,11622.9 18952.6,11538.3 19009.3,11471.1C19065.9,11403.9 19139.7,11370.3 19230.8,11370.3ZM19230.2,11485.8C19181.4,11485.8 19147.6,11516.2 19128.8,11577C19110.1,11637.9 19100.7,11700.5 19100.7,11764.8C19100.7,11840.1 19130.4,11877.8 19189.7,11877.8C19238.2,11877.8 19271.4,11844.7 19289.4,11778.6C19307.3,11712.5 19316.3,11652.5 19316.3,11598.7C19316.3,11523.4 19287.6,11485.8 19230.2,11485.8Z" style="fill:white;fill-rule:nonzero;"/>
        <path d="M19845.6,11385L19826.9,11498.1C19870.3,11415.6 19929.8,11374.4 20005.6,11374.4C20052.5,11374.4 20090.7,11389.6 20120.2,11419.9C20149.6,11450.1 20164.4,11488.5 20164.4,11535C20164.4,11553.8 20159.9,11590.7 20150.9,11645.8L20094.7,11980.9L19923,11980.9L19981,11632.8C19986.9,11598.1 19989.8,11576.2 19989.8,11567.2C19989.8,11525.4 19969.3,11504.5 19928.3,11504.5C19906.8,11504.5 19887,11511.6 19869.1,11525.9C19851.1,11540.2 19838,11558.5 19829.8,11581C19821.6,11603.5 19813.6,11638.5 19805.8,11686.2L19756.6,11980.9L19584.3,11980.9L19683.9,11385L19845.6,11385Z" style="fill:white;fill-rule:nonzero;"/>
        <path d="M20534.9,11385L20516.2,11498.1C20559.5,11415.6 20619.1,11374.4 20694.9,11374.4C20741.8,11374.4 20780,11389.6 20809.4,11419.9C20838.9,11450.1 20853.7,11488.5 20853.7,11535C20853.7,11553.8 20849.2,11590.7 20840.2,11645.8L20784,11980.9L20612.3,11980.9L20670.3,11632.8C20676.1,11598.1 20679.1,11576.2 20679.1,11567.2C20679.1,11525.4 20658.6,11504.5 20617.6,11504.5C20596.1,11504.5 20576.3,11511.6 20558.4,11525.9C20540.4,11540.2 20527.3,11558.5 20519.1,11581C20510.9,11603.5 20502.9,11638.5 20495.1,11686.2L20445.9,11980.9L20273.6,11980.9L20373.2,11385L20534.9,11385Z" style="fill:white;fill-rule:nonzero;"/>
        <path d="M21534.8,11712.5L21149.8,11712.5C21147.5,11732.1 21146.3,11746.7 21146.3,11756.5C21146.3,11795.1 21156.1,11824.1 21175.6,11843.5C21195.1,11862.8 21219,11872.5 21247.1,11872.5C21302.9,11872.5 21342.6,11840.8 21366,11777.6L21512.5,11802.2C21492.6,11859.6 21458.8,11906.2 21411.1,11941.9C21363.5,11977.7 21305.5,11995.5 21237.1,11995.5C21158.6,11995.5 21094.9,11970.2 21046.1,11919.4C20997.3,11868.7 20972.9,11802.6 20972.9,11721C20972.9,11630.4 21001.7,11549.7 21059.3,11478.6C21116.9,11407.6 21193.2,11372.1 21288.1,11372.1C21367.8,11372.1 21429.8,11397.8 21474.1,11449.3C21518.5,11500.8 21540.6,11564.7 21540.6,11641.2C21540.6,11657.9 21538.7,11681.7 21534.8,11712.5ZM21162.1,11614.1L21377.2,11614.1C21379.1,11600.9 21380.1,11589 21380.1,11578.5C21380.1,11547.4 21371.2,11523.5 21353.4,11506.8C21335.7,11490 21314.3,11481.7 21289.3,11481.7C21223.6,11481.7 21181.3,11525.8 21162.1,11614.1Z" style="fill:white;fill-rule:nonzero;"/>
        <path d="M22178.9,11770.5C22128.6,11919 22037,11993.2 21904.1,11993.2C21821.3,11993.2 21757.4,11967.3 21712.2,11915.6C21667.1,11863.8 21644.6,11798.1 21644.6,11718.4C21644.6,11628.9 21672.7,11549.1 21728.9,11479C21785.2,11408.9 21860.2,11373.9 21953.9,11373.9C22039.1,11373.9 22101.5,11397 22141.2,11443.3C22180.8,11489.6 22200.6,11539.1 22200.6,11591.8L22200.6,11604.7L22045.9,11614.1C22045.9,11574.6 22037,11546.4 22019,11529.4C22001,11512.4 21980.5,11503.9 21957.5,11503.9C21918.8,11503.9 21888,11526.3 21865.2,11571C21842.3,11615.7 21830.9,11674.2 21830.9,11746.5C21830.9,11819.6 21861.2,11856.1 21921.7,11856.1C21975.2,11856.1 22012.5,11821.1 22033.6,11751.2L22178.9,11770.5Z" style="fill:white;fill-rule:nonzero;"/>
        <path d="M22684.3,11521.5L22542.5,11521.5L22502.6,11760.5C22498.3,11785.2 22496.2,11802.2 22496.2,11811.6C22496.2,11843.6 22522,11859.6 22573.5,11859.6C22598.1,11859.6 22618.8,11858 22635.6,11854.9L22613.4,11985.6C22572.3,11992.2 22532.9,11995.5 22495,11995.5C22376.6,11995.5 22317.5,11947.5 22317.5,11851.4C22317.5,11824.8 22323.7,11780.1 22336.2,11717.2L22376.1,11521.5L22284.1,11521.5L22306.9,11385L22406.5,11385L22447,11220.9L22597.5,11216.8L22569.4,11385L22707.1,11385L22684.3,11521.5Z" style="fill:white;fill-rule:nonzero;"/>
        <path d="M22920.6,11740.1L22828,11740.1L22857.9,11181.1L23063,11181.1L22920.6,11740.1ZM22958.7,11803.3L22928.8,11980.9L22751.3,11980.9L22781.2,11803.3L22958.7,11803.3Z" style="fill:white;fill-rule:nonzero;"/>
    </g>
    <g transform="matrix(1.29682,0,0,1.29682,-7945.8,-628.48)">
        <path d="M7069.46,1993.87L7452.8,1993.87L7452.8,2184.48L6840.72,2184.48L6840.72,1220.82L7069.46,1220.82L7069.46,1993.87Z" style="fill:white;fill-rule:nonzero;"/>
        <path d="M8084.23,1220.82L8385.68,2184.48L8142.82,2184.48L8084.23,1986.1L7772.18,1986.1L7711.47,2184.48L7513.8,2184.48L7822.31,1220.82L8084.23,1220.82ZM7826.55,1808.19L8031.28,1808.19L7928.91,1470.03L7826.55,1808.19Z" style="fill:white;fill-rule:nonzero;"/>
        <path d="M8753.07,1220.82L8753.07,1673.62L9055.23,1220.82L9271.26,1220.82L9039.7,1564.88L9329.15,2184.48L9079.94,2184.48L8888.62,1766.7L8753.07,1963.51L8753.07,2184.48L8531.39,2184.48L8531.39,1220.82L8753.07,1220.82Z" style="fill:white;fill-rule:nonzero;"/>
        <path d="M10173.1,1404.37L9713.48,1404.37L9713.48,1602.05L10074.9,1602.05L10074.9,1783.48L9713.48,1783.48L9713.48,1993.87L10173.1,1993.87L10173.1,2184.48L9484.03,2184.48L9484.03,1220.82L10173.1,1220.82L10173.1,1404.37Z" style="fill:white;fill-rule:nonzero;"/>
        <path d="M10753.9,1220.82L11048.3,1220.82C11168.4,1220.82 11257.8,1237.41 11316.6,1270.59C11375.4,1303.77 11428.2,1356.25 11474.7,1428.02C11521.3,1499.8 11544.6,1590.52 11544.6,1700.18C11544.6,1838.08 11503.9,1953.27 11422.5,2045.76C11341.1,2138.24 11228.8,2184.48 11085.8,2184.48L10753.9,2184.48L10753.9,1220.82ZM10975.6,1398.02L10975.6,2003.04L11068.8,2003.04C11151.2,2003.04 11212.4,1972.33 11252.4,1910.91C11292.4,1849.49 11312.4,1777.37 11312.4,1694.53C11312.4,1636.17 11301,1582.16 11278.1,1532.51C11255.3,1482.85 11226.9,1448.03 11193.1,1428.02C11159.2,1408.02 11118.5,1398.02 11070.9,1398.02L10975.6,1398.02Z" style="fill:white;fill-rule:nonzero;"/>
        <path d="M12173.9,1220.82L12475.4,2184.48L12232.5,2184.48L12173.9,1986.1L11861.9,1986.1L11801.2,2184.48L11603.5,2184.48L11912,1220.82L12173.9,1220.82ZM11916.3,1808.19L12121,1808.19L12018.6,1470.03L11916.3,1808.19Z" style="fill:white;fill-rule:nonzero;"/>
        <path d="M12849.8,1993.87L13233.2,1993.87L13233.2,2184.48L12621.1,2184.48L12621.1,1220.82L12849.8,1220.82L12849.8,1993.87Z" style="fill:white;fill-rule:nonzero;"/>
        <path d="M13619.6,1993.87L14003,1993.87L14003,2184.48L13390.9,2184.48L13390.9,1220.82L13619.6,1220.82L13619.6,1993.87Z" style="fill:white;fill-rule:nonzero;"/>
        <path d="M14634.4,1220.82L14935.9,2184.48L14693,2184.48L14634.4,1986.1L14322.4,1986.1L14261.7,2184.48L14064,2184.48L14372.5,1220.82L14634.4,1220.82ZM14376.7,1808.19L14581.5,1808.19L14479.1,1470.03L14376.7,1808.19Z" style="fill:white;fill-rule:nonzero;"/>
        <path d="M15747.3,1432.61L15555.3,1496.86C15529.4,1420.61 15474.6,1382.49 15390.8,1382.49C15301.4,1382.49 15256.7,1411.43 15256.7,1469.32C15256.7,1492.38 15265,1511.92 15281.7,1527.92C15298.4,1543.92 15336.2,1557.81 15395,1569.59C15493.4,1589.39 15565.4,1609.41 15611.1,1629.65C15656.7,1649.88 15695.2,1682.47 15726.5,1727.41C15757.8,1772.35 15773.4,1822.59 15773.4,1878.12C15773.4,1965.18 15739.9,2040.48 15672.8,2104.01C15605.8,2167.54 15506.3,2199.31 15374.6,2199.31C15275.7,2199.31 15191.6,2176.83 15122.2,2131.88C15052.7,2086.94 15007,2020.22 14984.9,1931.74L15193.8,1884.44C15217.4,1974.33 15282.8,2019.28 15390.1,2019.28C15441.9,2019.28 15480.5,2009.28 15505.9,1989.28C15531.3,1969.27 15544,1945.39 15544,1917.62C15544,1889.38 15532.5,1867.5 15509.4,1851.96C15486.3,1836.43 15441.9,1821.84 15376,1808.19C15253.1,1782.77 15165.6,1748.06 15113.3,1704.05C15061.1,1660.04 15035,1595.68 15035,1510.96C15035,1425.31 15066.2,1353.07 15128.5,1294.24C15190.9,1235.41 15275.5,1205.99 15382.3,1205.99C15571.5,1205.99 15693.2,1281.53 15747.3,1432.61Z" style="fill:white;fill-rule:nonzero;"/>
        <path d="M16595,1826.55L16595,2184.48L16365.6,2184.48L16365.6,1220.82L16745.4,1220.82C16830.1,1220.82 16895,1229.88 16939.9,1248C16984.9,1266.12 17025,1298.47 17060.3,1345.07C17095.6,1391.66 17113.2,1448.85 17113.2,1516.62C17113.2,1564.16 17103.8,1610.52 17085,1655.7C17066.2,1700.88 17039.6,1736.42 17005.2,1762.3C16970.9,1788.19 16937.6,1805.37 16905.3,1813.84C16873.1,1822.31 16822.6,1826.55 16753.9,1826.55L16595,1826.55ZM16587.3,1651.47L16734.1,1651.47C16790.1,1651.47 16829.4,1638.52 16852,1612.64C16874.6,1586.75 16885.9,1557.1 16885.9,1523.68C16885.9,1484.62 16873.3,1453.56 16848.1,1430.49C16823,1407.43 16784.7,1395.9 16733.4,1395.9L16587.3,1395.9L16587.3,1651.47Z" style="fill:white;fill-rule:nonzero;"/>
        <path d="M18040.5,1220.82L18040.5,1820.9C18040.5,1917.86 18029.4,1989.98 18007.3,2037.28C17985.2,2084.58 17944.3,2123.41 17884.8,2153.77C17825.3,2184.13 17749.1,2199.31 17656.4,2199.31C17563.7,2199.31 17489.9,2185.66 17435.1,2158.36C17380.3,2131.06 17339.2,2092.23 17311.9,2041.87C17284.6,1991.51 17270.9,1917.86 17270.9,1820.9L17270.9,1220.82L17515.9,1220.82L17515.9,1820.9C17515.9,1872.67 17520.3,1910.8 17529,1935.27C17537.7,1959.74 17555.1,1979.16 17581.2,1993.51C17607.3,2007.87 17639.5,2015.05 17677.6,2015.05C17719.9,2015.05 17754.4,2007.99 17781,1993.87C17807.6,1979.75 17825.3,1961.04 17834,1937.74C17842.7,1914.44 17847,1875.5 17847,1820.9L17847,1220.82L18040.5,1220.82Z" style="fill:white;fill-rule:nonzero;"/>
        <path d="M18261.7,1220.82L18710.7,1220.82C18791.2,1220.82 18851.7,1230.69 18892.2,1250.45C18932.6,1270.2 18966,1298.42 18992.4,1335.1C19018.8,1371.78 19031.9,1416.46 19031.9,1469.13C19031.9,1575.89 18974,1647.14 18858.3,1682.88C18925.1,1697.95 18975.2,1727.86 19008.6,1772.61C19042.1,1817.35 19058.8,1866.09 19058.8,1918.84C19058.8,1990.9 19031.5,2053.19 18976.9,2105.71C18922.3,2158.22 18833.6,2184.48 18710.7,2184.48L18261.7,2184.48L18261.7,1220.82ZM18486.9,1390.96L18486.9,1602.05L18657.8,1602.05C18720.4,1602.05 18759.8,1589.69 18776,1564.98C18792.3,1540.27 18800.4,1516.62 18800.4,1494.03C18800.4,1469.56 18793.7,1448.5 18780.3,1430.85C18766.8,1413.2 18752.1,1402.14 18736.1,1397.66C18720.1,1393.19 18688.6,1390.96 18641.5,1390.96L18486.9,1390.96ZM18486.9,1773.6L18486.9,2005.87L18660.6,2005.87C18719.9,2005.87 18761.8,1995.51 18786.3,1974.8C18810.7,1954.1 18823,1925.15 18823,1887.97C18823,1856.9 18811.2,1830.08 18787.7,1807.49C18764.1,1784.89 18725.1,1773.6 18670.5,1773.6L18486.9,1773.6Z" style="fill:white;fill-rule:nonzero;"/>
        <path d="M19474.2,1993.87L19857.5,1993.87L19857.5,2184.48L19245.4,2184.48L19245.4,1220.82L19474.2,1220.82L19474.2,1993.87Z" style="fill:white;fill-rule:nonzero;"/>
        <rect x="20015.2" y="1220.82" width="225.208" height="963.663" style="fill:white;fill-rule:nonzero;"/>
        <path d="M21253.1,1579.45L21016.6,1594.28C21013.3,1458.26 20960.3,1390.25 20857.7,1390.25C20740.1,1390.25 20681.2,1494.97 20681.2,1704.41C20681.2,1825.37 20697.2,1907.38 20729.2,1950.45C20761.2,1993.51 20806,2015.05 20863.4,2015.05C20956.6,2015.05 21013.5,1954.33 21034.2,1832.9L21253.1,1846.32C21239,1961.62 21196,2049.28 21124.2,2109.29C21052.5,2169.3 20964.6,2199.31 20860.5,2199.31C20733,2199.31 20629.3,2155.3 20549.6,2067.29C20469.8,1979.28 20429.9,1857.61 20429.9,1702.3C20429.9,1556.86 20468.5,1437.79 20545.7,1345.07C20622.9,1252.35 20728.3,1205.99 20862,1205.99C21093.5,1205.99 21223.9,1330.48 21253.1,1579.45Z" style="fill:white;fill-rule:nonzero;"/>
        <path d="M22057,1993.87L22440.4,1993.87L22440.4,2184.48L21828.3,2184.48L21828.3,1220.82L22057,1220.82L22057,1993.87Z" style="fill:white;fill-rule:nonzero;"/>
        <rect x="22598.1" y="1220.82" width="225.208" height="963.663" style="fill:white;fill-rule:nonzero;"/>
        <path d="M23058.7,1220.82L23507.7,1220.82C23588.2,1220.82 23648.6,1230.69 23689.1,1250.45C23729.6,1270.2 23763,1298.42 23789.4,1335.1C23815.7,1371.78 23828.9,1416.46 23828.9,1469.13C23828.9,1575.89 23771,1647.14 23655.2,1682.88C23722.1,1697.95 23772.2,1727.86 23805.6,1772.61C23839,1817.35 23855.7,1866.09 23855.7,1918.84C23855.7,1990.9 23828.4,2053.19 23773.8,2105.71C23719.2,2158.22 23630.5,2184.48 23507.7,2184.48L23058.7,2184.48L23058.7,1220.82ZM23283.9,1390.96L23283.9,1602.05L23454.7,1602.05C23517.3,1602.05 23556.7,1589.69 23573,1564.98C23589.2,1540.27 23597.3,1516.62 23597.3,1494.03C23597.3,1469.56 23590.6,1448.5 23577.2,1430.85C23563.8,1413.2 23549.1,1402.14 23533.1,1397.66C23517.1,1393.19 23485.5,1390.96 23438.5,1390.96L23283.9,1390.96ZM23283.9,1773.6L23283.9,2005.87L23457.5,2005.87C23516.8,2005.87 23558.7,1995.51 23583.2,1974.8C23607.7,1954.1 23619.9,1925.15 23619.9,1887.97C23619.9,1856.9 23608.2,1830.08 23584.6,1807.49C23561.1,1784.89 23522,1773.6 23467.4,1773.6L23283.9,1773.6Z" style="fill:white;fill-rule:nonzero;"/>
        <path d="M24269.7,1802.55L24269.7,2184.48L24042.4,2184.48L24042.4,1220.82L24466,1220.82C24544.1,1220.82 24606.8,1229.87 24654.1,1247.99C24701.4,1266.09 24740.6,1299.37 24771.7,1347.82C24802.7,1396.26 24818.2,1450.11 24818.2,1509.38C24818.2,1625.08 24762.5,1708.09 24650.9,1758.42L24828.8,2184.48L24579.6,2184.48L24431.4,1802.55L24269.7,1802.55ZM24269.7,1392.37L24269.7,1638.05L24408.1,1638.05C24453.3,1638.05 24486.1,1634.87 24506.6,1628.52C24527,1622.17 24545.3,1608.05 24561.3,1586.16C24577.3,1564.28 24585.3,1539.21 24585.3,1510.98C24585.3,1484.15 24577.3,1460.14 24561.3,1438.96C24545.3,1417.79 24527.9,1404.73 24509,1399.78C24490.2,1394.84 24454.9,1392.37 24403.1,1392.37L24269.7,1392.37Z" style="fill:white;fill-rule:nonzero;"/>
        <path d="M25508.3,1220.82L25809.7,2184.48L25566.9,2184.48L25508.3,1986.1L25196.2,1986.1L25135.5,2184.48L24937.8,2184.48L25246.3,1220.82L25508.3,1220.82ZM25250.6,1808.19L25455.3,1808.19L25353,1470.03L25250.6,1808.19Z" style="fill:white;fill-rule:nonzero;"/>
        <path d="M26182.8,1802.55L26182.8,2184.48L25955.4,2184.48L25955.4,1220.82L26379,1220.82C26457.1,1220.82 26519.9,1229.87 26567.2,1247.99C26614.5,1266.09 26653.6,1299.37 26684.7,1347.82C26715.8,1396.26 26731.3,1450.11 26731.3,1509.38C26731.3,1625.08 26675.5,1708.09 26564,1758.42L26741.9,2184.48L26492.7,2184.48L26344.4,1802.55L26182.8,1802.55ZM26182.8,1392.37L26182.8,1638.05L26321.1,1638.05C26366.3,1638.05 26399.1,1634.87 26419.6,1628.52C26440.1,1622.17 26458.3,1608.05 26474.3,1586.16C26490.3,1564.28 26498.3,1539.21 26498.3,1510.98C26498.3,1484.15 26490.3,1460.14 26474.3,1438.96C26458.3,1417.79 26440.9,1404.73 26422.1,1399.78C26403.3,1394.84 26368,1392.37 26316.2,1392.37L26182.8,1392.37Z" style="fill:white;fill-rule:nonzero;"/>
        <path d="M27621.8,1220.82L27319,1778.54L27319,2184.48L27093,2184.48L27093,1778.54L26790.2,1220.82L27052.1,1220.82L27236.4,1586.91L27419.2,1220.82L27621.8,1220.82Z" style="fill:white;fill-rule:nonzero;"/>
    </g>
    <g transform="matrix(30.5807,0,0,30.5807,7496.05,-21451.2)">
        <path d="M76.749,869.383C80.382,878.864 153.519,877.573 153.519,877.573C218.154,875.214 226.838,913.461 225.762,917.447C224.685,921.432 147.06,901.488 147.06,901.488C76.392,908.306 76.749,891.259 76.749,891.259L76.749,869.383Z" style="fill:rgb(28,162,157);"/>
    </g>
    <g transform="matrix(-30.5807,0,0,26.7506,21306.5,-17935.3)">
        <path d="M76.749,869.383C80.382,878.864 153.519,877.573 153.519,877.573C218.154,875.214 226.838,913.461 225.762,917.447C224.685,921.432 147.06,901.488 147.06,901.488C76.392,908.306 76.749,891.259 76.749,891.259L76.749,869.383Z" style="fill:rgb(28,162,157);"/>
    </g>
    <g transform="matrix(30.5807,0,0,30.5807,7496.05,-21451.2)">
        <path d="M383.164,854.156C383.164,854.156 390.752,851.537 390.752,863.32L390.752,934.42C390.752,934.42 344.019,927.736 301.647,928.051C272.059,928.271 244.598,931.905 236.663,943.612L236.663,943.642C236.663,943.642 233.727,947.152 225.762,947.152C217.796,947.152 214.86,943.642 214.86,943.642C197.252,917.664 106.216,928.336 90.406,930.405C88.889,930.603 60.772,934.451 60.772,934.451L60.772,863.35C60.772,851.568 68.359,854.27 68.359,854.27L68.359,854.186L68.359,792.304C68.359,792.304 88.345,806.58 174.187,805.579C174.187,805.579 207.406,805.255 225.762,841.301L225.762,841.27C244.118,805.225 277.336,805.548 277.336,805.548C363.179,806.55 383.164,792.274 383.164,792.274L383.164,854.156ZM68.359,902.973L68.359,926.251C68.359,926.251 95.183,923.382 96.631,923.234C111.714,921.691 198.563,914.734 215.361,934.104C215.361,934.104 218.163,937.721 225.762,937.721C233.361,937.721 236.29,933.936 236.356,933.864C244.17,925.307 270.166,921.641 298.158,921.479C338.58,921.244 383.164,926.228 383.164,926.228L383.164,902.942C383.163,903.1 383.09,905.908 379.275,908.91C379.275,908.91 360.767,921.534 299.16,912.382C299.16,912.382 247.436,909.549 225.717,937.721C225.679,937.743 225.731,937.712 225.717,937.721C204.039,909.437 150.946,912.382 150.946,912.382C89.339,921.534 72.25,908.94 72.25,908.94L72.248,908.94C68.433,905.938 68.36,903.131 68.359,902.973ZM374.775,836.952C366.454,848.446 279.821,846.482 279.821,846.482C230.954,848.186 229.416,897.041 229.416,897.041C246.791,863.504 305.581,869.625 305.581,869.625C371.117,873.176 374.775,857.834 374.775,857.834L374.775,836.952ZM374.775,869.353C371.141,878.833 298.004,877.543 298.004,877.543C233.369,875.184 229.379,917.349 229.379,917.349C242.732,896.714 304.463,901.457 304.463,901.457C375.131,908.276 374.775,891.229 374.775,891.229L374.775,869.353ZM374.775,804.092C361.197,813.85 287.634,813.397 287.634,813.397C227.971,815.101 229.419,866.776 229.419,866.776C246.635,836.343 290.333,838.791 290.333,838.791C369.884,841.206 374.775,825.985 374.775,825.985L374.775,804.092ZM76.749,836.982L76.749,857.864C76.749,857.864 80.406,873.206 145.942,869.655C145.942,869.655 204.733,863.534 222.108,897.072C222.108,897.072 220.569,848.217 171.702,846.512C171.702,846.512 85.07,848.477 76.749,836.982ZM76.749,869.383L76.749,891.259C76.749,891.259 76.392,908.306 147.06,901.488C147.06,901.488 208.754,896.479 222.108,917.114C222.108,917.114 218.154,875.214 153.519,877.573C153.519,877.573 80.382,878.864 76.749,869.383ZM76.749,804.123L76.749,826.015C76.749,826.015 81.639,841.237 161.19,838.822C161.19,838.822 204.888,836.373 222.104,866.807C222.104,866.807 223.553,815.132 163.889,813.427C163.889,813.427 90.326,813.88 76.749,804.123Z" style="fill:rgb(190,202,202);"/>
    </g>
    <g transform="matrix(35.1737,0,0,32.4357,7457.14,2690.34)">
        <path d="M47.463,192.657C45.923,190.375 44.426,188.057 42.972,185.705C51.681,182.031 60.864,178.621 72.288,178.621C85.073,178.621 95.051,182.892 104.7,187.024C114.308,191.137 123.383,195.023 135.144,195.023C146.904,195.023 155.979,191.137 165.588,187.024C175.236,182.892 185.214,178.621 198,178.621C210.786,178.621 220.763,182.892 230.412,187.024C240.02,191.137 249.095,195.023 260.855,195.023C272.617,195.023 281.692,191.137 291.3,187.024C300.948,182.892 310.925,178.621 323.711,178.621C335.937,178.621 345.595,182.526 354.853,186.48C353.396,188.816 351.895,191.117 350.352,193.382C342.426,190.16 333.974,187.408 323.711,187.408C310.925,187.408 300.948,191.679 291.3,195.811C281.692,199.924 272.617,203.81 260.855,203.81C249.095,203.81 240.02,199.924 230.412,195.811C220.763,191.679 210.786,187.408 198,187.408C185.214,187.408 175.236,191.679 165.588,195.811C155.979,199.924 146.904,203.81 135.144,203.81C123.383,203.81 114.308,199.924 104.7,195.811C95.051,191.679 85.073,187.408 72.288,187.408C62.805,187.408 54.867,189.758 47.463,192.657Z" style="fill:white;"/>
    </g>
    <g transform="matrix(35.1737,0,0,32.4357,7441.45,2953.9)">
        <path d="M58.612,198.859C54.78,194.175 51.144,189.3 47.718,184.247C55.288,181.174 62.94,178.719 72.288,178.719C84.048,178.719 93.123,182.604 102.732,186.718C112.38,190.849 122.358,195.121 135.144,195.121C147.93,195.121 157.907,190.849 167.556,186.718C177.164,182.605 186.239,178.719 198,178.719C209.76,178.719 218.835,182.604 228.443,186.718C238.092,190.849 248.069,195.121 260.855,195.121C273.642,195.121 283.619,190.849 293.268,186.718C302.875,182.604 311.951,178.719 323.711,178.719C333.801,178.719 341.914,181.579 350.083,184.989C346.686,189.953 343.085,194.743 339.294,199.346C334.509,198.049 329.387,197.207 323.711,197.207C310.925,197.207 300.948,201.478 291.3,205.61C281.692,209.723 272.617,213.609 260.855,213.609C249.095,213.609 240.02,209.723 230.412,205.61C220.763,201.478 210.786,197.207 198,197.207C185.214,197.207 175.236,201.478 165.588,205.61C155.979,209.723 146.904,213.609 135.144,213.609C123.383,213.609 114.308,209.723 104.7,205.61C95.051,201.478 85.073,197.207 72.288,197.207C67.359,197.207 62.848,197.842 58.612,198.859Z" style="fill:rgb(28,162,157);"/>
    </g>
    <g transform="matrix(35.1737,0,0,32.4357,7435.63,3550.57)">
        <path d="M289.143,203.439C281.034,200.107 272.406,197.207 261.871,197.207C250.89,197.207 241.981,200.357 233.573,203.864C232.191,204.441 230.822,205.027 229.46,205.61C228.592,205.982 227.728,206.351 226.867,206.716C222.11,208.732 217.414,210.609 212.378,211.894C208.229,212.953 203.849,213.609 199.015,213.609C193.802,213.609 189.117,212.846 184.679,211.637C179.654,210.269 174.946,208.331 170.148,206.284C169.624,206.061 169.099,205.836 168.572,205.61C166.873,204.883 165.163,204.151 163.431,203.439C155.322,200.107 146.694,197.207 136.16,197.207C125.179,197.207 116.269,200.357 107.861,203.864C106.479,204.441 105.11,205.027 103.748,205.61C102.88,205.982 102.017,206.351 101.155,206.716C97.469,208.278 93.818,209.757 90.019,210.942C85.412,207.368 80.961,203.574 76.678,199.575C74.776,197.799 72.908,195.983 71.074,194.127C67.306,190.316 63.683,186.339 60.215,182.206C59.677,181.565 59.142,180.921 58.612,180.272C62.848,179.256 67.359,178.621 72.288,178.621C85.073,178.621 95.051,182.892 104.7,187.024C114.308,191.137 123.383,195.023 135.144,195.023C146.904,195.023 155.979,191.137 165.588,187.024C175.236,182.892 185.214,178.621 198,178.621C210.786,178.621 220.763,182.892 230.412,187.024C240.02,191.137 249.095,195.023 260.855,195.023C272.617,195.023 281.692,191.137 291.3,187.024C300.948,182.892 310.925,178.621 323.711,178.621C329.387,178.621 334.509,179.463 339.294,180.76C338.764,181.404 338.23,182.045 337.692,182.681C334.317,186.676 330.798,190.525 327.143,194.218C325.389,195.99 323.603,197.727 321.787,199.426C317.431,203.503 312.9,207.367 308.209,211.003C303.989,209.701 299.957,208.032 295.86,206.284C295.336,206.061 294.81,205.836 294.284,205.61C292.585,204.883 290.875,204.151 289.143,203.439ZM285.404,226.146C272.762,233.251 259.283,238.844 245.171,242.704C243.777,243.085 242.377,243.449 240.971,243.797C227.521,247.117 213.525,248.871 199.153,248.871C184.308,248.871 169.862,247 156.006,243.463C154.641,243.114 153.282,242.75 151.929,242.369C139.802,238.959 128.149,234.267 117.101,228.434C110.671,225.039 104.446,221.258 98.451,217.118C98.975,216.911 99.497,216.702 100.017,216.49C101.941,215.707 103.835,214.896 105.716,214.091C107.94,213.139 110.135,212.199 112.342,211.317C115.009,210.25 117.693,209.268 120.464,208.45C125.305,207.021 130.411,206.092 136.16,206.092C141.507,206.092 146.3,206.896 150.84,208.159C153.627,208.934 156.319,209.882 158.986,210.925C161.527,211.918 164.046,212.997 166.603,214.091C168.152,214.754 169.71,215.421 171.286,216.074C173.476,216.98 175.702,217.858 177.992,218.659C184.32,220.871 191.134,222.494 199.015,222.494C206.463,222.494 212.958,221.045 218.991,219.018C221.295,218.243 223.532,217.385 225.729,216.49C227.653,215.707 229.547,214.896 231.428,214.091C233.651,213.139 235.847,212.199 238.053,211.316C240.72,210.25 243.404,209.268 246.175,208.45C251.016,207.02 256.122,206.092 261.871,206.092C267.219,206.092 272.011,206.896 276.551,208.159C279.339,208.934 282.03,209.883 284.697,210.925C287.239,211.918 289.758,212.997 292.315,214.091C293.864,214.754 295.421,215.421 296.998,216.074C297.91,216.451 298.828,216.824 299.755,217.188C295.106,220.393 290.318,223.384 285.404,226.146Z" style="fill:rgb(11,39,156);"/>
    </g>
    <g transform="matrix(35.1737,0,0,32.4357,5260.48,4153.43)">
        <path d="M162.996,188.13C163.857,187.765 164.72,187.396 165.588,187.024C166.95,186.441 168.319,185.854 169.702,185.278C178.11,181.771 187.019,178.621 198,178.621C208.535,178.621 217.162,181.52 225.271,184.853C227.004,185.565 228.713,186.297 230.412,187.024C230.939,187.25 231.464,187.475 231.989,187.698C236.786,189.745 241.494,191.683 246.519,193.051C250.957,194.26 255.642,195.023 260.855,195.023C265.689,195.023 270.069,194.367 274.219,193.308C279.254,192.023 283.951,190.146 288.707,188.13C289.569,187.765 290.432,187.396 291.3,187.024C292.662,186.441 294.031,185.854 295.414,185.278C303.822,181.771 312.73,178.621 323.711,178.621C334.247,178.621 342.874,181.52 350.983,184.853C352.716,185.565 354.425,186.297 356.124,187.024C356.651,187.25 357.176,187.475 357.7,187.698C361.797,189.446 365.829,191.115 370.049,192.417C369.219,193.061 368.384,193.697 367.543,194.326C365.587,195.791 363.604,197.216 361.595,198.601C360.669,198.237 359.75,197.865 358.838,197.487C357.262,196.835 355.704,196.168 354.155,195.505C351.598,194.411 349.079,193.332 346.538,192.339C343.871,191.297 341.179,190.348 338.392,189.573C333.852,188.31 329.059,187.506 323.711,187.506C317.963,187.506 312.856,188.434 308.015,189.864C305.244,190.682 302.561,191.664 299.894,192.73C297.687,193.613 295.492,194.553 293.268,195.505C291.387,196.31 289.494,197.121 287.569,197.904C285.373,198.798 283.136,199.657 280.831,200.431C274.799,202.458 268.304,203.908 260.855,203.908C252.974,203.908 246.16,202.285 239.833,200.072C237.543,199.272 235.317,198.394 233.126,197.487C231.55,196.835 229.992,196.168 228.443,195.505C225.887,194.41 223.368,193.332 220.826,192.339C218.159,191.296 215.467,190.348 212.68,189.572C208.14,188.309 203.348,187.506 198,187.506C192.252,187.506 187.145,188.434 182.304,189.864C179.533,190.682 176.85,191.664 174.183,192.73C171.976,193.613 169.78,194.553 167.556,195.505C165.675,196.31 163.782,197.121 161.857,197.904C161.338,198.116 160.816,198.325 160.292,198.532C158.978,197.625 157.676,196.701 156.385,195.76C154.861,194.649 153.352,193.514 151.859,192.356C155.659,191.171 159.309,189.692 162.996,188.13Z" style="fill:white;"/>
    </g>
    <g transform="matrix(30.5807,0,0,30.5807,7496.05,-21451.2)">
        <path d="M462.117,1043.49L462.203,1043.76C461.828,1043.86 461.454,1043.96 461.08,1044.05L460.994,1043.78C461.367,1043.69 461.741,1043.59 462.117,1043.49ZM462.117,1043.49L461.023,1040.05L461.109,1040.03L462.203,1043.46L462.117,1043.49ZM195.371,890.488L76.749,890.488L76.749,857.864L76.749,856.541L76.749,847.092L76.749,804.123C90.326,813.88 163.889,813.427 163.889,813.427C221.062,815.061 222.119,862.58 222.108,866.544L222.108,866.85C222.108,866.85 222.944,884.256 222.108,896.55L222.108,917.331L219.726,907.999C219.703,908.023 219.68,908.047 219.657,908.07C215.092,912.572 194.718,893.858 194.718,893.858L195.371,890.488ZM220.931,864.847C220.765,864.585 220.597,864.325 220.427,864.067L220.427,864.12L220.931,864.847ZM-9.556,1044.05C-9.93,1043.96 -10.304,1043.86 -10.679,1043.76L-10.593,1043.49C-10.218,1043.59 -9.843,1043.69 -9.47,1043.78L-9.556,1044.05Z" style="fill:rgb(28,162,157);stroke:rgb(28,162,157);stroke-width:0.03px;"/>
    </g>
    <g transform="matrix(-30.5807,0,0,30.5807,21303.9,-21452.1)">
        <path d="M462.117,1043.49L462.203,1043.76C461.828,1043.86 461.454,1043.96 461.08,1044.05L460.994,1043.78C461.367,1043.69 461.741,1043.59 462.117,1043.49ZM462.117,1043.49L461.023,1040.05L461.109,1040.03L462.203,1043.46L462.117,1043.49ZM195.371,890.488L76.749,890.488L76.749,857.864L76.749,856.541L76.749,847.092L76.749,804.123C90.326,813.88 163.889,813.427 163.889,813.427C221.062,815.061 222.119,862.58 222.108,866.544L222.108,866.85C222.108,866.85 222.944,884.256 222.108,896.55L222.108,917.331L219.726,907.999C219.703,908.023 219.68,908.047 219.657,908.07C215.092,912.572 194.718,893.858 194.718,893.858L195.371,890.488ZM220.931,864.847C220.765,864.585 220.597,864.325 220.427,864.067L220.427,864.12L220.931,864.847ZM-9.556,1044.05C-9.93,1043.96 -10.304,1043.86 -10.679,1043.76L-10.593,1043.49C-10.218,1043.59 -9.843,1043.69 -9.47,1043.78L-9.556,1044.05Z" style="fill:rgb(28,162,157);stroke:rgb(28,162,157);stroke-width:0.03px;"/>
    </g>
</svg>
